<svg xmlns="http://www.w3.org/2000/svg" xmlns:xlink="http://www.w3.org/1999/xlink" width="500" zoomAndPan="magnify" viewBox="0 0 375 374.999991" height="500" preserveAspectRatio="xMidYMid meet" version="1.0"><defs><clipPath id="6bd63f0408"><path d="M 64.125 329 L 134 329 L 134 375 L 64.125 375 Z M 64.125 329 " clip-rule="nonzero"/></clipPath><clipPath id="ef9c16cea9"><path d="M 64.125 328 L 135 328 L 135 375 L 64.125 375 Z M 64.125 328 " clip-rule="nonzero"/></clipPath></defs><path fill="#ffffff" d="M 178.128906 401.59375 C 178.128906 401.59375 220.773438 402.828125 224.554688 401.015625 C 228.332031 399.125 226.9375 392.300781 222.335938 389.75 C 217.734375 387.199219 203.4375 386.542969 203.4375 386.542969 C 203.4375 386.542969 223.894531 363.839844 225.128906 353.886719 C 226.359375 343.9375 225.785156 336.453125 223.402344 328.964844 C 221.019531 321.480469 220.691406 324.195312 219.128906 319.589844 C 217.570312 314.984375 221.429688 289.15625 222.003906 282.988281 C 222.582031 276.820312 223.730469 261.355469 223.648438 253.542969 C 223.566406 245.730469 220.117188 225.332031 218.71875 221.464844 C 217.320312 217.601562 207.460938 213.40625 192.507812 212.5 C 177.554688 211.597656 169.171875 213.816406 162.761719 224.179688 C 156.355469 234.542969 144.519531 324.03125 141.808594 349.117188 C 139.097656 374.203125 148.875 393.863281 158.738281 398.960938 C 168.597656 404.226562 178.128906 401.59375 178.128906 401.59375 Z M 178.128906 401.59375 " fill-opacity="1" fill-rule="nonzero"/><path fill="#020202" d="M 172.046875 403.074219 C 168.351562 403.074219 163.421875 402.414062 158.40625 399.867188 C 147.808594 394.4375 138.441406 374.039062 141.070312 349.28125 C 143.78125 323.703125 155.613281 234.542969 162.105469 224.015625 C 169.007812 212.828125 178.457031 211.183594 192.507812 212.007812 C 206.558594 212.828125 217.652344 216.695312 219.375 221.464844 C 220.773438 225.25 224.304688 245.8125 224.386719 253.789062 C 224.472656 261.273438 223.402344 275.832031 222.746094 283.316406 C 222.582031 284.796875 222.253906 287.429688 221.921875 290.636719 C 220.773438 300.179688 218.800781 316.21875 219.871094 319.589844 C 220.527344 321.480469 220.9375 322.058594 221.347656 322.714844 C 222.003906 323.621094 222.746094 324.691406 224.140625 328.964844 C 226.605469 336.617188 227.183594 344.183594 225.949219 354.21875 C 224.882812 363.019531 209.351562 381.195312 205.160156 386.046875 C 209.023438 386.292969 218.964844 387.117188 222.828125 389.253906 C 225.703125 390.820312 227.675781 394.109375 227.59375 397.316406 C 227.59375 399.371094 226.605469 401.015625 224.964844 401.839844 C 221.183594 403.730469 183.222656 402.664062 178.292969 402.496094 C 177.71875 402.496094 175.335938 403.074219 172.046875 403.074219 Z M 187.085938 213.242188 C 174.757812 213.242188 168.433594 216.449219 163.339844 224.757812 C 157.257812 234.625 145.507812 321.234375 142.550781 349.363281 C 140.003906 373.464844 148.957031 393.203125 159.066406 398.386719 C 168.597656 403.238281 177.882812 400.851562 177.964844 400.769531 C 178.046875 400.769531 178.128906 400.769531 178.210938 400.769531 C 195.300781 401.265625 221.59375 401.59375 224.222656 400.277344 C 225.703125 399.535156 225.949219 397.972656 225.949219 397.070312 C 225.949219 394.929688 224.800781 391.886719 222.003906 390.40625 C 217.570312 388.023438 203.519531 387.28125 203.4375 387.28125 C 203.105469 387.28125 202.859375 387.117188 202.777344 386.789062 C 202.695312 386.542969 202.695312 386.210938 202.941406 385.964844 C 203.105469 385.71875 223.238281 363.347656 224.472656 353.804688 C 225.703125 344.019531 225.128906 336.699219 222.746094 329.214844 C 221.429688 325.101562 220.773438 324.195312 220.199219 323.375 C 219.703125 322.632812 219.210938 321.976562 218.472656 319.835938 C 217.320312 316.464844 218.800781 303.304688 220.445312 290.226562 C 220.855469 287.019531 221.183594 284.46875 221.265625 282.988281 C 221.921875 275.585938 222.992188 261.027344 222.910156 253.625 C 222.828125 245.730469 219.375 225.496094 217.980469 221.796875 C 216.746094 218.339844 207.296875 214.226562 192.425781 213.40625 C 190.453125 213.324219 188.726562 213.242188 187.085938 213.242188 Z M 187.085938 213.242188 " fill-opacity="1" fill-rule="nonzero"/><path fill="#ffffff" d="M 213.707031 223.6875 C 213.707031 223.6875 219.539062 253.625 219.457031 264.234375 C 219.375 274.847656 214.691406 289.40625 212.144531 294.585938 C 209.597656 299.6875 206.3125 314.410156 208.695312 318.601562 C 211.078125 322.796875 215.84375 321.730469 221.511719 313.75 C 227.183594 305.855469 233.507812 282.167969 231.703125 269.828125 C 229.894531 257.492188 225.375 241.863281 222.003906 234.789062 C 218.636719 227.71875 213.707031 223.6875 213.707031 223.6875 Z M 213.707031 223.6875 " fill-opacity="1" fill-rule="nonzero"/><path fill="#020202" d="M 211.898438 321.152344 C 211.816406 321.152344 211.652344 321.152344 211.570312 321.152344 C 210.089844 321.070312 208.859375 320.332031 207.953125 318.933594 C 205.160156 314.65625 209.023438 298.945312 211.40625 294.175781 C 213.214844 290.472656 214.363281 286.527344 215.84375 281.097656 C 216.335938 279.453125 216.828125 277.644531 217.40625 275.667969 C 219.789062 267.691406 217.980469 256.503906 217.898438 256.421875 C 217.816406 256.011719 218.144531 255.601562 218.554688 255.519531 C 218.964844 255.433594 219.375 255.765625 219.457031 256.175781 C 219.539062 256.667969 221.347656 267.773438 218.882812 276.164062 C 218.308594 278.136719 217.816406 279.863281 217.320312 281.589844 C 215.84375 286.9375 214.609375 291.132812 212.804688 294.914062 C 210.253906 300.015625 207.050781 314.738281 209.269531 318.191406 C 209.84375 319.097656 210.667969 319.589844 211.652344 319.671875 C 213.789062 319.835938 216.828125 317.945312 219.210938 315.148438 C 222.582031 311.117188 227.839844 299.109375 229.402344 289.816406 C 230.878906 281.097656 230.878906 270.734375 229.320312 262.097656 C 227.921875 254.203125 221.347656 234.132812 220.035156 232.078125 C 219.789062 231.746094 219.953125 231.253906 220.28125 231.007812 C 220.609375 230.761719 221.101562 230.925781 221.347656 231.253906 C 222.828125 233.722656 229.402344 254.035156 230.796875 261.851562 C 232.441406 270.734375 232.441406 281.097656 230.878906 290.144531 C 229.238281 299.851562 223.976562 311.859375 220.363281 316.21875 C 218.308594 318.601562 215.019531 321.152344 211.898438 321.152344 Z M 211.898438 321.152344 " fill-opacity="1" fill-rule="nonzero"/><path fill="#f4ca87" d="M 173.035156 396.988281 C 178.457031 400.277344 215.515625 361.042969 236.386719 324.773438 C 257.253906 288.5 277.960938 225.25 277.386719 220.316406 C 276.8125 215.378906 263.253906 212.582031 259.144531 215.050781 C 255.039062 217.519531 208.039062 287.265625 197.4375 306.921875 C 186.839844 326.664062 167.117188 393.449219 173.035156 396.988281 Z M 173.035156 396.988281 " fill-opacity="1" fill-rule="nonzero"/><path fill="#020202" d="M 173.855469 397.972656 C 173.445312 397.972656 173.035156 397.890625 172.703125 397.644531 C 165.722656 393.449219 187.742188 323.621094 196.863281 306.59375 C 207.050781 287.675781 254.542969 217.023438 258.816406 214.394531 C 262.019531 212.417969 269.417969 213.40625 273.855469 215.542969 C 276.484375 216.859375 277.960938 218.421875 278.207031 220.148438 C 278.867188 225.660156 257.914062 289.074219 237.125 325.101562 C 217.40625 359.316406 183.878906 395.34375 174.921875 397.726562 C 174.429688 397.972656 174.101562 397.972656 173.855469 397.972656 Z M 263.664062 214.96875 C 261.9375 214.96875 260.378906 215.214844 259.472656 215.789062 C 255.695312 218.09375 209.1875 286.691406 198.09375 307.417969 C 186.671875 328.71875 168.679688 393.53125 173.445312 396.410156 C 173.609375 396.492188 174.019531 396.492188 174.429688 396.410156 C 182.976562 394.191406 216.5 357.835938 235.726562 324.523438 C 256.679688 288.171875 277.140625 225.085938 276.566406 220.5625 C 276.402344 219.328125 275.167969 218.09375 273.03125 217.105469 C 270.320312 215.707031 266.621094 214.96875 263.664062 214.96875 Z M 263.664062 214.96875 " fill-opacity="1" fill-rule="nonzero"/><path fill="#e58fb2" d="M 285.191406 193.914062 C 285.191406 193.914062 301.050781 185.933594 305.898438 174.5 C 310.746094 163.070312 307.789062 154.761719 307.707031 144.5625 C 307.625 134.363281 309.1875 129.511719 309.1875 129.511719 C 309.1875 129.511719 302.941406 133.375 299.078125 139.792969 C 295.21875 146.207031 292.917969 153.117188 292.917969 153.117188 C 292.917969 153.117188 297.1875 141.273438 296.121094 140.777344 C 295.136719 140.203125 283.796875 155.171875 277.386719 163.316406 C 270.976562 171.457031 276.070312 190.046875 278.125 192.351562 C 280.179688 194.570312 283.222656 194.652344 285.191406 193.914062 Z M 285.191406 193.914062 " fill-opacity="1" fill-rule="nonzero"/><path fill="#020202" d="M 282.808594 195.0625 C 281.003906 195.0625 279.03125 194.488281 277.46875 192.761719 C 275.003906 190.046875 269.992188 171.210938 276.648438 162.738281 C 277.960938 161.09375 279.441406 159.203125 281.003906 157.230469 C 294.394531 140.121094 295.300781 139.464844 296.367188 140.039062 C 296.613281 140.203125 297.023438 140.367188 296.859375 141.929688 C 297.355469 141.109375 297.765625 140.203125 298.339844 139.382812 C 302.285156 132.882812 308.445312 129.015625 308.691406 128.851562 C 308.9375 128.6875 309.351562 128.6875 309.597656 128.933594 C 309.84375 129.101562 309.925781 129.429688 309.84375 129.757812 C 309.84375 129.839844 308.28125 134.691406 308.363281 144.644531 C 308.363281 147.441406 308.609375 150.074219 308.855469 152.625 C 309.515625 159.695312 310.089844 166.359375 306.472656 174.832031 C 301.542969 186.429688 286.097656 194.242188 285.4375 194.570312 C 285.4375 194.570312 285.355469 194.570312 285.355469 194.570312 C 284.699219 194.898438 283.796875 195.0625 282.808594 195.0625 Z M 285.191406 193.914062 Z M 295.382812 142.09375 C 293 144.480469 286.671875 152.539062 282.234375 158.214844 C 280.671875 160.191406 279.195312 162.082031 277.878906 163.726562 C 271.71875 171.539062 276.8125 189.800781 278.621094 191.691406 C 280.507812 193.746094 283.136719 193.746094 284.863281 193.171875 C 285.769531 192.679688 300.558594 184.949219 305.160156 174.171875 C 308.609375 166.03125 308.035156 159.53125 307.378906 152.707031 C 307.132812 150.074219 306.886719 147.359375 306.886719 144.5625 C 306.804688 137.984375 307.460938 133.625 307.953125 131.238281 C 305.898438 132.800781 302.285156 135.925781 299.738281 140.121094 C 296.941406 144.726562 294.972656 149.664062 294.066406 151.964844 C 293.902344 152.375 293.738281 152.871094 293.574219 153.28125 C 293.410156 153.691406 293 153.855469 292.589844 153.773438 C 292.175781 153.609375 292.011719 153.199219 292.09375 152.789062 C 292.09375 152.789062 292.257812 152.375 292.503906 151.636719 C 293.820312 148.015625 295.054688 143.988281 295.382812 142.09375 Z M 295.382812 142.09375 " fill-opacity="1" fill-rule="nonzero"/><path fill="#020202" d="M 284.125 192.761719 C 283.878906 192.761719 283.632812 192.679688 283.46875 192.433594 C 283.222656 192.101562 283.304688 191.609375 283.632812 191.363281 C 283.714844 191.28125 295.957031 182.152344 299.242188 170.472656 C 300.804688 164.796875 300.804688 159.203125 300.804688 154.269531 C 300.804688 148.757812 300.804688 143.574219 303.023438 139.382812 C 303.1875 138.96875 303.679688 138.886719 304.089844 139.050781 C 304.503906 139.214844 304.585938 139.710938 304.421875 140.121094 C 302.367188 143.988281 302.367188 148.757812 302.449219 154.351562 C 302.449219 159.367188 302.449219 165.125 300.804688 170.964844 C 297.355469 183.136719 285.191406 192.265625 284.617188 192.679688 C 284.371094 192.679688 284.289062 192.761719 284.125 192.761719 Z M 284.125 192.761719 " fill-opacity="1" fill-rule="nonzero"/><path fill="#020202" d="M 278.949219 191.117188 C 278.785156 191.117188 278.621094 191.035156 278.453125 190.953125 C 278.125 190.703125 278.125 190.210938 278.371094 189.882812 C 278.453125 189.800781 285.605469 181.574219 288.644531 171.375 C 288.808594 170.964844 289.21875 170.71875 289.628906 170.882812 C 290.039062 171.046875 290.289062 171.457031 290.121094 171.871094 C 286.917969 182.398438 279.851562 190.539062 279.523438 190.871094 C 279.359375 191.035156 279.113281 191.117188 278.949219 191.117188 Z M 278.949219 191.117188 " fill-opacity="1" fill-rule="nonzero"/><path fill="#020202" d="M 277.796875 189.140625 C 277.386719 189.140625 277.058594 188.8125 277.058594 188.402344 C 277.058594 187.578125 276.648438 168.828125 284.289062 160.929688 C 284.617188 160.601562 285.109375 160.601562 285.355469 160.929688 C 285.6875 161.257812 285.6875 161.671875 285.355469 162 C 278.125 169.402344 278.539062 188.238281 278.539062 188.402344 C 278.621094 188.8125 278.207031 189.140625 277.796875 189.140625 Z M 277.796875 189.140625 " fill-opacity="1" fill-rule="nonzero"/><path fill="#020202" d="M 174.019531 397.234375 C 173.855469 397.234375 173.691406 397.152344 173.527344 397.070312 C 173.199219 396.824219 173.199219 396.328125 173.363281 396 C 179.03125 388.023438 206.230469 342.207031 206.476562 341.714844 C 206.722656 341.386719 207.132812 341.222656 207.542969 341.46875 C 207.871094 341.714844 208.039062 342.125 207.789062 342.539062 C 207.542969 342.949219 188.726562 374.78125 179.03125 390.078125 C 191.109375 377.164062 219.128906 345.167969 230.632812 315.148438 C 230.796875 314.738281 231.207031 314.574219 231.621094 314.738281 C 232.03125 314.902344 232.195312 315.3125 232.03125 315.722656 C 217.15625 354.546875 174.921875 396.660156 174.511719 397.070312 C 174.347656 397.152344 174.183594 397.234375 174.019531 397.234375 Z M 174.019531 397.234375 " fill-opacity="1" fill-rule="nonzero"/><path fill="#020202" d="M 173.28125 395.753906 C 173.199219 395.753906 173.117188 395.753906 173.035156 395.753906 C 172.621094 395.589844 172.375 395.175781 172.539062 394.765625 C 172.703125 394.273438 188.5625 343.9375 195.546875 326.746094 C 202.613281 309.554688 219.789062 283.070312 220.035156 282.824219 C 220.28125 282.496094 220.773438 282.332031 221.101562 282.578125 C 221.429688 282.824219 221.59375 283.316406 221.347656 283.648438 C 221.183594 283.894531 204.011719 310.214844 197.027344 327.320312 C 190.042969 344.429688 174.183594 394.683594 174.019531 395.179688 C 173.9375 395.507812 173.609375 395.753906 173.28125 395.753906 Z M 173.28125 395.753906 " fill-opacity="1" fill-rule="nonzero"/><path fill="#020202" d="M 173.035156 397.808594 C 172.953125 397.808594 172.871094 397.808594 172.789062 397.726562 C 172.375 397.5625 172.210938 397.152344 172.375 396.742188 C 178.128906 382.429688 213.214844 316.300781 213.542969 315.640625 C 213.707031 315.230469 214.199219 315.148438 214.609375 315.3125 C 215.019531 315.476562 215.105469 315.972656 214.9375 316.382812 C 214.609375 317.039062 179.523438 383.167969 173.855469 397.398438 C 173.609375 397.644531 173.363281 397.808594 173.035156 397.808594 Z M 173.035156 397.808594 " fill-opacity="1" fill-rule="nonzero"/><path fill="#c67234" d="M 278.539062 227.304688 C 281.660156 225.824219 286.753906 210.691406 288.316406 201.398438 C 289.875 192.101562 289.628906 191.363281 288.398438 189.964844 C 287.164062 188.648438 277.796875 185.03125 275.988281 185.933594 C 274.183594 186.839844 257.171875 211.679688 255.941406 214.722656 C 254.707031 217.765625 258.242188 219.738281 263.992188 222.863281 C 270.402344 226.402344 275.167969 228.867188 278.539062 227.304688 Z M 278.539062 227.304688 " fill-opacity="1" fill-rule="nonzero"/><path fill="#020202" d="M 276.238281 228.539062 C 273.03125 228.539062 268.921875 226.484375 263.582031 223.605469 C 257.832031 220.480469 253.640625 218.175781 255.203125 214.476562 C 256.1875 212.089844 273.441406 186.429688 275.660156 185.277344 C 277.878906 184.207031 287.574219 187.992188 288.972656 189.472656 C 290.535156 191.117188 290.699219 192.265625 289.136719 201.5625 C 287.738281 209.785156 282.5625 226.320312 278.949219 228.046875 C 278.042969 228.375 277.140625 228.539062 276.238281 228.539062 Z M 276.8125 186.59375 C 276.566406 186.59375 276.402344 186.59375 276.320312 186.675781 C 274.675781 187.742188 257.914062 211.84375 256.597656 215.050781 C 255.613281 217.355469 258.40625 219 264.320312 222.207031 C 270.8125 225.742188 275.25 227.964844 278.207031 226.566406 C 280.671875 225.414062 285.851562 211.433594 287.574219 201.234375 C 289.136719 191.855469 288.808594 191.527344 287.820312 190.457031 C 286.753906 189.390625 279.113281 186.59375 276.8125 186.59375 Z M 276.8125 186.59375 " fill-opacity="1" fill-rule="nonzero"/><g clip-path="url(#6bd63f0408)"><path fill="#d3bd9f" d="M 112.066406 393.367188 C 123.652344 384.648438 128.664062 377.410156 132.195312 370.089844 C 135.730469 362.769531 132.277344 355.78125 132.277344 355.78125 L 126.773438 363.347656 C 126.773438 363.347656 129.566406 352.488281 121.433594 344.59375 C 113.296875 336.699219 101.875 338.671875 92.179688 337.109375 C 82.484375 335.546875 77.964844 329.542969 77.964844 329.542969 C 77.964844 329.542969 72.460938 341.796875 70.324219 352.65625 C 68.1875 363.511719 68.351562 370.996094 70.816406 376.507812 C 73.363281 381.9375 78.292969 385.800781 78.292969 385.800781 C 78.292969 385.800781 71.722656 384.898438 68.761719 381.441406 C 65.804688 377.988281 64.820312 375.847656 64.820312 375.847656 C 64.820312 375.847656 67.449219 385.964844 70.570312 389.007812 C 73.691406 392.050781 79.28125 393.863281 79.28125 393.863281 C 79.28125 393.863281 76.238281 395.34375 73.9375 394.191406 C 71.636719 393.121094 69.339844 391.148438 69.339844 391.148438 C 69.339844 391.148438 76.570312 400.851562 83.964844 402.664062 C 91.359375 404.472656 108.367188 396.082031 112.066406 393.367188 Z M 112.066406 393.367188 " fill-opacity="1" fill-rule="nonzero"/></g><g clip-path="url(#ef9c16cea9)"><path fill="#020202" d="M 86.429688 403.730469 C 85.441406 403.730469 84.621094 403.648438 83.800781 403.484375 C 76.238281 401.59375 69.089844 392.132812 68.761719 391.722656 C 68.515625 391.394531 68.597656 390.984375 68.84375 390.734375 C 69.089844 390.488281 69.585938 390.488281 69.832031 390.734375 C 69.832031 390.734375 72.050781 392.628906 74.269531 393.613281 C 75.089844 394.027344 76.074219 394.027344 76.980469 393.863281 C 75.007812 393.039062 72.132812 391.558594 70.078125 389.667969 C 66.789062 386.542969 64.160156 376.589844 64.078125 376.179688 C 63.996094 375.765625 64.160156 375.4375 64.570312 375.273438 C 64.902344 375.109375 65.394531 375.273438 65.558594 375.683594 C 65.558594 375.683594 66.625 377.824219 69.421875 381.113281 C 70.980469 382.921875 73.609375 383.992188 75.664062 384.566406 C 73.9375 382.839844 71.636719 380.207031 70.160156 376.917969 C 67.613281 371.324219 67.367188 363.839844 69.585938 352.65625 C 71.722656 341.796875 77.226562 329.542969 77.308594 329.378906 C 77.390625 329.132812 77.636719 328.964844 77.882812 328.964844 C 78.128906 328.882812 78.375 329.050781 78.539062 329.296875 C 78.621094 329.378906 82.976562 335.054688 92.261719 336.535156 C 94.808594 336.945312 97.355469 337.109375 100.152344 337.273438 C 107.792969 337.765625 115.761719 338.179688 121.925781 344.183594 C 127.59375 349.777344 128.171875 356.601562 127.921875 360.550781 L 131.621094 355.449219 C 131.785156 355.203125 132.03125 355.121094 132.277344 355.121094 C 132.523438 355.121094 132.773438 355.285156 132.9375 355.535156 C 133.101562 355.863281 136.46875 363.019531 132.855469 370.585938 C 129.566406 377.328125 124.800781 384.8125 112.476562 394.109375 L 111.984375 393.53125 L 112.476562 394.109375 C 109.601562 396.082031 95.136719 403.730469 86.429688 403.730469 Z M 73.691406 394.929688 C 76.40625 397.726562 80.265625 401.015625 84.128906 401.921875 C 90.867188 403.648438 107.546875 395.671875 111.488281 392.710938 C 123.570312 383.582031 128.171875 376.261719 131.375 369.679688 C 133.839844 364.582031 132.769531 359.5625 131.949219 357.261719 L 127.265625 363.675781 C 127.019531 364.003906 126.691406 364.085938 126.363281 363.921875 C 126.035156 363.757812 125.871094 363.429688 125.953125 363.019531 C 125.953125 362.9375 128.5 352.488281 120.773438 345.003906 C 115.023438 339.414062 107.382812 338.917969 99.988281 338.507812 C 97.273438 338.34375 94.5625 338.179688 91.933594 337.765625 C 84.292969 336.535156 79.773438 332.667969 78.046875 330.859375 C 76.652344 334.066406 72.625 343.9375 70.898438 352.65625 C 68.761719 363.511719 68.925781 370.75 71.390625 376.011719 C 73.773438 381.277344 78.621094 385.0625 78.621094 385.0625 C 78.871094 385.308594 78.953125 385.636719 78.871094 385.964844 C 78.703125 386.292969 78.375 386.460938 78.046875 386.460938 C 77.800781 386.460938 71.144531 385.472656 68.023438 381.851562 C 67.613281 381.359375 67.285156 380.949219 66.871094 380.453125 C 67.859375 383.414062 69.335938 386.871094 70.898438 388.269531 C 73.9375 391.148438 79.28125 392.957031 79.28125 392.957031 C 79.609375 393.039062 79.773438 393.367188 79.773438 393.613281 C 79.773438 393.945312 79.609375 394.191406 79.363281 394.355469 C 79.527344 394.601562 76.320312 396.082031 73.691406 394.929688 Z M 73.691406 394.929688 " fill-opacity="1" fill-rule="nonzero"/></g><path fill="#d3bd9f" d="M 162.925781 217.519531 C 162.925781 217.519531 135.15625 237.09375 127.511719 256.339844 C 119.789062 275.503906 114.285156 297.300781 114.285156 297.300781 C 114.285156 297.300781 88.070312 313.832031 87.167969 339.824219 C 86.265625 365.816406 102.863281 389.503906 115.105469 397.808594 C 127.347656 406.035156 145.34375 408.914062 154.546875 409.734375 C 163.75 410.558594 196.453125 412.449219 202.695312 408.832031 C 208.941406 405.128906 203.683594 401.265625 198.835938 399.042969 C 193.988281 396.824219 187.085938 396.082031 181.578125 396.164062 C 176.074219 396.246094 170.816406 396.660156 170.816406 396.660156 C 170.816406 396.660156 189.632812 374.699219 192.261719 363.347656 C 194.890625 351.996094 195.21875 333.65625 179.523438 323.210938 C 163.832031 312.761719 155.859375 308.898438 155.859375 308.898438 C 155.859375 308.898438 185.605469 321.8125 185.769531 320.660156 C 185.933594 319.507812 177.800781 301.578125 177.800781 301.578125 L 186.015625 302.234375 L 178.621094 282.90625 L 189.054688 284.058594 L 177.304688 263.085938 L 183.222656 263.414062 C 183.222656 263.414062 174.921875 244.742188 175.089844 240.136719 C 175.253906 235.53125 171.0625 215.214844 162.925781 217.519531 Z M 162.925781 217.519531 " fill-opacity="1" fill-rule="nonzero"/><path fill="#020202" d="M 182.648438 411.710938 C 171.472656 411.710938 159.148438 410.886719 154.464844 410.476562 C 146.820312 409.816406 127.675781 407.269531 114.613281 398.46875 C 102.371094 390.160156 85.441406 366.472656 86.347656 339.824219 C 87.167969 315.148438 110.75 298.699219 113.542969 296.808594 C 114.203125 294.175781 119.542969 273.777344 126.691406 256.011719 C 134.414062 236.847656 161.285156 217.683594 162.433594 216.859375 C 162.515625 216.777344 162.597656 216.777344 162.679688 216.777344 C 164.488281 216.285156 166.214844 216.695312 167.773438 217.929688 C 173.363281 222.371094 175.992188 236.269531 175.828125 240.136719 C 175.664062 243.753906 181.578125 257.984375 183.878906 263.085938 C 183.960938 263.332031 183.960938 263.578125 183.796875 263.824219 C 183.632812 264.070312 183.386719 264.152344 183.140625 264.152344 L 178.621094 263.90625 L 189.632812 283.648438 C 189.796875 283.894531 189.796875 284.222656 189.632812 284.46875 C 189.46875 284.714844 189.222656 284.796875 188.890625 284.796875 L 179.769531 283.8125 L 186.753906 301.988281 C 186.839844 302.234375 186.839844 302.480469 186.671875 302.730469 C 186.507812 302.976562 186.261719 303.058594 186.015625 303.058594 L 179.03125 302.480469 C 182.648438 310.460938 186.671875 319.671875 186.507812 320.824219 C 186.507812 321.070312 186.261719 321.316406 186.097656 321.398438 C 185.769531 321.5625 184.949219 322.058594 167.609375 314.738281 C 170.980469 316.792969 175.003906 319.34375 179.855469 322.550781 C 197.519531 334.3125 194.890625 355.121094 192.917969 363.511719 C 190.617188 373.382812 176.648438 390.734375 172.457031 395.753906 C 174.511719 395.589844 177.964844 395.425781 181.496094 395.34375 C 188.234375 395.175781 194.808594 396.328125 199.082031 398.304688 C 202.285156 399.785156 206.066406 402.085938 206.230469 404.964844 C 206.3125 406.609375 205.242188 408.089844 203.023438 409.40625 C 200.066406 411.132812 191.769531 411.710938 182.648438 411.710938 Z M 163.253906 218.257812 C 161.367188 219.65625 135.484375 238.492188 128.171875 256.585938 C 120.609375 275.503906 115.023438 297.300781 115.023438 297.464844 C 114.941406 297.628906 114.859375 297.792969 114.695312 297.957031 C 114.449219 298.121094 88.8125 314.574219 87.988281 339.90625 C 87.085938 365.980469 103.601562 389.089844 115.597656 397.234375 C 128.335938 405.871094 147.152344 408.335938 154.710938 408.996094 C 167.28125 410.148438 196.78125 411.464844 202.367188 408.171875 C 204.09375 407.1875 204.914062 406.117188 204.832031 405.128906 C 204.75 403.484375 202.449219 401.511719 198.589844 399.785156 C 194.480469 397.890625 188.152344 396.824219 181.660156 396.988281 C 176.238281 397.070312 170.980469 397.480469 170.898438 397.480469 C 170.570312 397.480469 170.320312 397.316406 170.15625 397.070312 C 169.992188 396.824219 170.074219 396.492188 170.238281 396.246094 C 170.40625 396 188.972656 374.285156 191.519531 363.265625 C 193.410156 355.203125 195.957031 335.136719 179.113281 323.949219 C 163.667969 313.667969 155.695312 309.71875 155.613281 309.636719 C 155.203125 309.472656 155.121094 308.980469 155.285156 308.652344 C 155.449219 308.238281 155.941406 308.074219 156.269531 308.238281 C 165.886719 312.433594 181.085938 318.769531 184.949219 319.917969 C 183.960938 317.121094 179.9375 307.910156 177.222656 301.988281 C 177.140625 301.742188 177.140625 301.414062 177.304688 301.25 C 177.472656 301 177.71875 300.917969 177.964844 300.917969 L 185.03125 301.496094 L 178.046875 283.316406 C 177.964844 283.070312 177.964844 282.824219 178.128906 282.578125 C 178.292969 282.332031 178.539062 282.25 178.785156 282.25 L 187.742188 283.234375 L 176.730469 263.578125 C 176.566406 263.332031 176.566406 263.003906 176.730469 262.839844 C 176.894531 262.589844 177.140625 262.425781 177.386719 262.507812 L 182.070312 262.753906 C 180.265625 258.5625 174.183594 244.414062 174.347656 240.21875 C 174.511719 236.4375 171.71875 223.109375 166.871094 219.328125 C 165.636719 218.257812 164.488281 217.929688 163.253906 218.257812 Z M 114.203125 297.300781 Z M 114.203125 297.300781 " fill-opacity="1" fill-rule="nonzero"/><path fill="#d3bd9f" d="M 138.523438 259.960938 C 138.523438 259.960938 136.304688 284.140625 143.78125 288.992188 C 162.351562 301 188.972656 316.628906 198.503906 323.457031 C 202.367188 326.253906 206.558594 318.683594 203.847656 309.554688 C 200.476562 298.371094 184.289062 283.8125 179.359375 280.523438 C 174.429688 277.230469 171.472656 273.285156 170.40625 267.773438 C 169.335938 262.261719 170.734375 240.792969 170.734375 240.792969 C 170.734375 240.792969 148.136719 235.695312 145.835938 238 C 143.535156 240.300781 139.015625 254.449219 138.523438 259.960938 Z M 138.523438 259.960938 " fill-opacity="1" fill-rule="nonzero"/><path fill="#d3bd9f" d="M 186.015625 135.1875 C 182.238281 131.8125 168.1875 115.527344 167.773438 107.960938 C 167.363281 100.394531 170.320312 79.75 165.554688 70.292969 C 160.789062 60.832031 153.886719 50.796875 159.558594 43.808594 C 165.226562 36.816406 173.691406 41.011719 176.484375 40.023438 C 179.277344 39.035156 187.824219 34.429688 193.574219 36.074219 C 199.328125 37.71875 197.355469 58.695312 200.722656 72.511719 C 205.078125 90.277344 198.753906 123.175781 196.371094 130.746094 C 193.988281 138.3125 189.222656 138.148438 186.015625 135.1875 Z M 186.015625 135.1875 " fill-opacity="1" fill-rule="nonzero"/><path fill="#020202" d="M 190.207031 137.816406 C 188.5625 137.816406 186.921875 137.078125 185.441406 135.761719 C 181.824219 132.472656 167.445312 116.023438 166.953125 107.960938 C 166.871094 105.824219 166.953125 102.617188 167.117188 98.996094 C 167.527344 89.785156 168.105469 77.199219 164.816406 70.539062 C 164.160156 69.140625 163.421875 67.742188 162.679688 66.425781 C 158.324219 58.199219 153.804688 49.644531 158.902344 43.230469 C 163.171875 37.96875 169.007812 38.625 172.871094 39.117188 C 174.265625 39.28125 175.582031 39.449219 176.15625 39.199219 C 176.648438 39.035156 177.386719 38.707031 178.292969 38.296875 C 182.238281 36.570312 188.808594 33.773438 193.738281 35.171875 C 197.765625 36.320312 198.421875 44.300781 199.164062 54.417969 C 199.65625 60.503906 200.148438 66.835938 201.382812 72.183594 C 205.65625 89.785156 199.492188 122.765625 197.027344 130.828125 C 195.546875 135.515625 193.246094 137.078125 191.523438 137.570312 C 191.191406 137.734375 190.699219 137.816406 190.207031 137.816406 Z M 186.507812 134.609375 C 187.988281 136.007812 189.714844 136.503906 191.191406 136.089844 C 193.082031 135.597656 194.5625 133.625 195.628906 130.414062 C 198.09375 122.4375 204.175781 89.867188 199.984375 72.59375 C 198.671875 67.164062 198.175781 60.75 197.683594 54.582031 C 197.027344 45.78125 196.371094 37.554688 193.328125 36.652344 C 188.890625 35.417969 182.648438 38.050781 178.867188 39.695312 C 177.964844 40.105469 177.222656 40.433594 176.648438 40.597656 C 175.664062 40.929688 174.347656 40.761719 172.621094 40.597656 C 168.925781 40.105469 163.75 39.53125 160.050781 44.136719 C 155.53125 49.730469 159.640625 57.460938 163.996094 65.601562 C 164.734375 67 165.472656 68.398438 166.132812 69.796875 C 169.664062 76.789062 169.089844 89.621094 168.597656 98.996094 C 168.433594 102.617188 168.269531 105.660156 168.433594 107.796875 C 168.925781 114.953125 182.15625 130.746094 186.507812 134.609375 Z M 186.507812 134.609375 " fill-opacity="1" fill-rule="nonzero"/><path fill="#e58fb2" d="M 170.488281 50.058594 C 170.488281 50.058594 168.679688 56.226562 175.582031 73.664062 C 181.25 87.808594 172.789062 98.089844 174.757812 106.234375 C 176.730469 114.378906 188.234375 125.890625 189.878906 127.289062 C 191.519531 128.6875 190.945312 113.71875 192.671875 107.878906 C 198.011719 89.949219 196.617188 83.945312 194.480469 75.882812 C 192.34375 67.824219 191.851562 59.925781 191.109375 54.582031 C 190.453125 49.398438 175.335938 47.835938 170.488281 50.058594 Z M 170.488281 50.058594 " fill-opacity="1" fill-rule="nonzero"/><path fill="#020202" d="M 190.125 128.195312 C 189.878906 128.195312 189.632812 128.113281 189.386719 127.867188 C 189.222656 127.785156 176.238281 115.363281 174.019531 106.398438 C 173.199219 102.945312 174.019531 99.40625 175.089844 95.210938 C 176.566406 89.125 178.210938 82.21875 174.921875 73.910156 C 167.9375 56.390625 169.664062 50.058594 169.746094 49.730469 C 169.828125 49.480469 169.992188 49.316406 170.15625 49.234375 C 174.019531 47.507812 183.714844 47.917969 188.808594 50.714844 C 190.699219 51.785156 191.6875 53.019531 191.933594 54.5 C 192.097656 55.734375 192.261719 57.132812 192.425781 58.613281 C 193 63.464844 193.65625 69.550781 195.300781 75.636719 C 197.355469 83.449219 199 89.621094 193.492188 108.042969 C 192.671875 110.675781 192.425781 115.445312 192.097656 119.558594 C 191.6875 126.054688 191.519531 127.621094 190.535156 127.949219 C 190.371094 128.195312 190.289062 128.195312 190.125 128.195312 Z M 171.144531 50.550781 C 170.898438 52.03125 170.488281 58.695312 176.320312 73.335938 C 179.855469 82.054688 178.046875 89.539062 176.566406 95.542969 C 175.582031 99.488281 174.757812 102.945312 175.5 105.988281 C 177.222656 113.144531 186.921875 123.34375 189.878906 126.222656 C 190.125 124.988281 190.371094 122.027344 190.535156 119.558594 C 190.78125 115.28125 191.109375 110.511719 191.933594 107.714844 C 197.273438 89.703125 195.792969 84.027344 193.738281 76.128906 C 192.097656 69.878906 191.4375 63.792969 190.863281 58.859375 C 190.699219 57.378906 190.535156 55.980469 190.371094 54.746094 C 190.207031 53.757812 189.46875 52.9375 188.070312 52.113281 C 183.632812 49.730469 174.757812 49.234375 171.144531 50.550781 Z M 171.144531 50.550781 " fill-opacity="1" fill-rule="nonzero"/><path fill="#d3bd9f" d="M 152.738281 141.355469 C 154.546875 136.089844 159.558594 112.8125 155.859375 105 C 152.164062 97.1875 138.277344 77.941406 137.867188 66.097656 C 137.453125 54.253906 135.484375 44.792969 129.566406 36.570312 C 117.816406 20.199219 98.835938 0.789062 95.632812 1.203125 C 92.425781 1.613281 90.371094 30.730469 92.261719 45.617188 C 93.085938 52.113281 100.726562 70.207031 104.835938 85.753906 C 110.09375 105.660156 133.921875 135.597656 140.25 141.929688 C 146.574219 148.347656 151.175781 145.878906 152.738281 141.355469 Z M 152.738281 141.355469 " fill-opacity="1" fill-rule="nonzero"/><path fill="#020202" d="M 147.398438 146.617188 C 145.507812 146.617188 142.878906 145.714844 139.671875 142.507812 C 132.855469 135.679688 109.269531 105.660156 104.011719 86 C 102.039062 78.515625 99.246094 70.375 96.78125 63.300781 C 94.152344 55.734375 91.933594 49.234375 91.441406 45.78125 C 89.796875 33.03125 91.03125 1.035156 95.46875 0.460938 C 99.492188 0.0507812 119.214844 20.941406 130.058594 36.074219 C 135.484375 43.558594 138.03125 52.523438 138.523438 66.015625 C 138.851562 74.402344 146.164062 86.742188 151.503906 95.789062 C 153.640625 99.324219 155.449219 102.449219 156.519531 104.671875 C 160.378906 112.898438 155.203125 136.503906 153.394531 141.601562 C 152.492188 144.152344 150.765625 145.960938 148.628906 146.453125 C 148.300781 146.535156 147.890625 146.617188 147.398438 146.617188 Z M 95.796875 2.023438 C 93.496094 3.257812 90.949219 29.496094 93.003906 45.617188 C 93.414062 48.90625 95.632812 55.320312 98.261719 62.804688 C 100.726562 69.960938 103.519531 78.105469 105.574219 85.671875 C 110.75 105.082031 134.085938 134.773438 140.824219 141.519531 C 143.617188 144.316406 146.246094 145.550781 148.382812 145.054688 C 150.027344 144.726562 151.339844 143.246094 152.082031 141.191406 C 153.722656 136.335938 158.902344 113.0625 155.285156 105.410156 C 154.300781 103.273438 152.492188 100.230469 150.355469 96.691406 C 144.933594 87.5625 137.453125 74.980469 137.125 66.261719 C 136.632812 53.101562 134.167969 44.382812 128.992188 37.144531 C 116.914062 20.285156 98.589844 2.023438 95.796875 2.023438 Z M 152.738281 141.355469 Z M 152.738281 141.355469 " fill-opacity="1" fill-rule="nonzero"/><path fill="#e58fb2" d="M 103.355469 19.707031 C 103.355469 19.707031 126.773438 50.304688 129.976562 74.484375 C 132.195312 91.511719 145.753906 97.597656 148.21875 106.808594 C 150.683594 116.023438 145.589844 133.210938 144.769531 135.433594 C 143.945312 137.734375 136.46875 122.355469 131.703125 117.339844 C 116.832031 101.957031 115.105469 95.296875 112.886719 86.164062 C 110.667969 77.035156 106.886719 68.8125 104.753906 63.136719 C 102.535156 57.542969 97.355469 19.953125 103.355469 19.707031 Z M 103.355469 19.707031 " fill-opacity="1" fill-rule="nonzero"/><path fill="#020202" d="M 144.4375 136.421875 C 143.371094 136.421875 142.222656 134.773438 138.605469 128.851562 C 136.140625 124.824219 133.265625 120.214844 131.128906 117.914062 C 115.925781 102.203125 114.203125 95.210938 112.066406 86.410156 C 110.339844 79.503906 107.792969 73.085938 105.738281 67.90625 C 105.082031 66.34375 104.503906 64.863281 104.011719 63.546875 C 102.039062 58.28125 97.4375 26.207031 101.464844 20.199219 C 102.121094 19.214844 102.863281 19.050781 103.355469 18.96875 C 103.601562 18.96875 103.847656 19.050781 104.011719 19.296875 C 104.257812 19.625 127.59375 50.304688 130.800781 74.484375 C 132.113281 84.4375 137.371094 90.605469 142.054688 95.953125 C 145.261719 99.652344 147.972656 102.863281 149.039062 106.644531 C 151.671875 116.679688 145.671875 135.597656 145.589844 135.761719 C 145.34375 136.335938 144.933594 136.503906 144.6875 136.503906 C 144.519531 136.421875 144.519531 136.421875 144.4375 136.421875 Z M 144.605469 134.9375 Z M 103.027344 20.613281 C 102.945312 20.695312 102.78125 20.777344 102.617188 21.023438 C 99.082031 26.371094 103.4375 58.035156 105.328125 62.972656 C 105.820312 64.285156 106.394531 65.765625 107.054688 67.332031 C 109.1875 72.511719 111.738281 79.007812 113.460938 86.082031 C 115.597656 95.046875 117.242188 101.464844 132.113281 116.925781 C 134.414062 119.3125 137.289062 124 139.839844 128.113281 C 141.316406 130.582031 143.207031 133.542969 144.109375 134.609375 C 145.097656 131.238281 149.617188 115.609375 147.316406 107.058594 C 146.410156 103.601562 143.78125 100.476562 140.660156 96.941406 C 135.894531 91.347656 130.386719 85.097656 129.074219 74.648438 C 126.28125 52.359375 105.820312 24.3125 103.027344 20.613281 Z M 103.027344 20.613281 " fill-opacity="1" fill-rule="nonzero"/><path fill="#d3bd9f" d="M 157.257812 48.414062 C 157.257812 48.414062 165.226562 41.011719 172.871094 52.523438 C 180.511719 64.039062 184.867188 76.378906 201.546875 88.386719 C 218.226562 100.394531 230.878906 105.082031 234.496094 103.683594 C 238.027344 102.203125 221.675781 84.273438 220.363281 67.578125 C 219.046875 50.878906 202.367188 26.617188 189.714844 27.355469 C 177.140625 28.015625 181.496094 36.570312 174.265625 34.347656 C 166.953125 32.128906 156.601562 35.664062 157.257812 48.414062 Z M 157.257812 48.414062 " fill-opacity="1" fill-rule="nonzero"/><path fill="#020202" d="M 232.851562 104.671875 C 227.511719 104.671875 215.84375 99.738281 201.054688 89.042969 C 188.070312 79.667969 182.484375 70.125 177.058594 60.914062 C 175.417969 58.117188 173.9375 55.570312 172.210938 52.9375 C 169.828125 49.234375 167.117188 47.261719 164.242188 46.933594 C 160.542969 46.4375 157.832031 48.988281 157.75 48.988281 C 157.503906 49.152344 157.175781 49.234375 156.929688 49.152344 C 156.683594 49.070312 156.4375 48.742188 156.4375 48.496094 C 156.023438 41.503906 158.902344 37.71875 161.367188 35.828125 C 164.816406 33.113281 169.828125 32.292969 174.429688 33.609375 C 177.222656 34.429688 177.882812 33.609375 179.03125 31.960938 C 180.511719 29.824219 182.484375 26.945312 189.632812 26.617188 C 189.796875 26.617188 189.960938 26.617188 190.207031 26.617188 C 203.1875 26.617188 219.789062 51.042969 221.101562 67.578125 C 221.839844 77.035156 227.511719 86.824219 231.621094 94.0625 C 234.660156 99.40625 236.136719 102.039062 235.644531 103.519531 C 235.480469 103.929688 235.152344 104.261719 234.742188 104.425781 C 234.25 104.507812 233.589844 104.671875 232.851562 104.671875 Z M 163.339844 45.289062 C 163.667969 45.289062 164.078125 45.289062 164.40625 45.371094 C 167.773438 45.78125 170.816406 48 173.445312 52.113281 C 175.171875 54.746094 176.8125 57.542969 178.375 60.175781 C 183.714844 69.222656 189.222656 78.597656 201.957031 87.808594 C 219.210938 100.3125 231.125 104.179688 234.167969 102.945312 C 234.578125 102.203125 232.195312 98.089844 230.304688 94.71875 C 226.113281 87.398438 220.363281 77.445312 219.539062 67.578125 C 218.0625 48.578125 200.230469 27.4375 189.714844 28.015625 C 183.304688 28.34375 181.578125 30.8125 180.265625 32.703125 C 179.03125 34.511719 177.882812 36.15625 173.9375 35.007812 C 169.910156 33.773438 165.308594 34.511719 162.269531 36.898438 C 159.476562 39.117188 157.996094 42.492188 157.914062 46.851562 C 159.148438 46.191406 161.039062 45.289062 163.339844 45.289062 Z M 163.339844 45.289062 " fill-opacity="1" fill-rule="nonzero"/><path fill="#020202" d="M 212.554688 81.886719 C 212.390625 81.886719 212.226562 81.804688 212.0625 81.722656 C 207.050781 77.695312 205.324219 73.5 201.710938 64.285156 C 201.054688 62.558594 200.230469 60.667969 199.410156 58.53125 C 194.070312 45.535156 176.484375 35.746094 176.320312 35.664062 C 175.910156 35.5 175.828125 35.007812 175.992188 34.59375 C 176.15625 34.183594 176.648438 34.101562 177.058594 34.265625 C 177.800781 34.675781 195.300781 44.382812 200.804688 57.953125 C 201.710938 60.09375 202.449219 61.984375 203.105469 63.710938 C 206.804688 72.921875 208.285156 76.707031 213.050781 80.488281 C 213.378906 80.738281 213.460938 81.230469 213.132812 81.558594 C 212.96875 81.804688 212.722656 81.886719 212.554688 81.886719 Z M 212.554688 81.886719 " fill-opacity="1" fill-rule="nonzero"/><path fill="#d3bd9f" d="M 171.964844 126.46875 C 155.367188 129.183594 127.019531 135.1875 124.390625 159.695312 C 121.761719 184.207031 124.882812 194.40625 120.855469 207.402344 C 116.914062 220.480469 115.351562 249.265625 147.644531 248.527344 C 179.9375 247.785156 231.703125 237.667969 247.722656 224.261719 C 263.746094 210.855469 261.445312 187.824219 252.984375 180.09375 C 244.519531 172.363281 236.960938 171.046875 230.058594 154.679688 C 223.15625 138.3125 212.804688 127.621094 203.355469 125.316406 C 193.820312 123.175781 179.113281 125.316406 171.964844 126.46875 Z M 171.964844 126.46875 " fill-opacity="1" fill-rule="nonzero"/><path fill="#020202" d="M 146.410156 249.429688 C 135.894531 249.429688 128.171875 246.222656 123.320312 239.890625 C 116.421875 230.761719 117.242188 216.613281 120.117188 207.238281 C 122.335938 200.082031 122.335938 193.914062 122.335938 185.359375 C 122.335938 178.777344 122.417969 170.554688 123.570312 159.613281 C 126.035156 136.171875 150.683594 129.183594 171.800781 125.726562 L 171.964844 126.46875 L 171.800781 125.726562 C 186.179688 123.34375 196.535156 123.011719 203.4375 124.660156 C 213.542969 127.125 223.976562 138.558594 230.714844 154.515625 C 235.726562 166.359375 240.820312 170.058594 246.738281 174.417969 C 248.875 175.980469 251.09375 177.628906 253.394531 179.683594 C 257.75 183.632812 260.378906 191.117188 260.214844 199.257812 C 260.132812 205.179688 258.40625 216.367188 248.136719 225.003906 C 231.371094 239.148438 178.292969 248.773438 147.644531 249.429688 C 147.234375 249.429688 146.820312 249.429688 146.410156 249.429688 Z M 193 125.152344 C 184.621094 125.152344 175.664062 126.632812 172.046875 127.207031 C 151.421875 130.582031 127.511719 137.40625 125.128906 159.777344 C 123.980469 170.636719 123.898438 178.777344 123.898438 185.359375 C 123.816406 193.664062 123.816406 200.328125 121.597656 207.648438 C 118.886719 216.613281 117.980469 230.265625 124.554688 238.902344 C 129.238281 245.070312 136.960938 248.03125 147.5625 247.785156 C 189.304688 246.800781 234.496094 234.296875 247.148438 223.6875 C 256.925781 215.460938 258.570312 204.769531 258.734375 199.09375 C 258.898438 191.527344 256.433594 184.289062 252.40625 180.671875 C 250.1875 178.613281 247.972656 177.050781 245.917969 175.488281 C 240.082031 171.210938 234.496094 167.179688 229.320312 154.925781 C 222.828125 139.382812 212.722656 128.359375 203.105469 125.972656 C 200.148438 125.480469 196.617188 125.152344 193 125.152344 Z M 193 125.152344 " fill-opacity="1" fill-rule="nonzero"/><path fill="#ffffff" d="M 162.269531 203.535156 C 162.269531 203.535156 156.519531 182.726562 145.261719 186.34375 C 134.003906 189.964844 139.753906 209.046875 139.753906 209.046875 C 139.753906 209.046875 156.355469 208.964844 162.269531 203.535156 Z M 162.269531 203.535156 " fill-opacity="1" fill-rule="nonzero"/><path fill="#020202" d="M 139.671875 209.867188 C 139.34375 209.867188 139.015625 209.621094 138.933594 209.292969 C 138.6875 208.472656 133.101562 189.390625 144.933594 185.605469 C 147.398438 184.78125 149.78125 185.03125 152.082031 186.261719 C 159.230469 190.128906 162.84375 202.796875 163.007812 203.289062 C 163.089844 203.535156 163.007812 203.863281 162.761719 204.027344 C 156.683594 209.621094 140.414062 209.867188 139.671875 209.867188 C 139.753906 209.867188 139.753906 209.867188 139.671875 209.867188 Z M 147.890625 186.675781 C 147.152344 186.675781 146.328125 186.839844 145.507812 187.085938 C 136.140625 190.128906 139.507812 205.179688 140.332031 208.304688 C 143.207031 208.222656 156.105469 207.566406 161.449219 203.289062 C 160.707031 200.984375 157.339844 190.785156 151.421875 187.660156 C 150.273438 187.003906 149.039062 186.675781 147.890625 186.675781 Z M 147.890625 186.675781 " fill-opacity="1" fill-rule="nonzero"/><path fill="#020202" d="M 134.660156 194.488281 C 129.894531 194.488281 127.59375 191.773438 127.429688 191.609375 C 127.183594 191.28125 127.183594 190.785156 127.511719 190.539062 C 127.839844 190.292969 128.335938 190.292969 128.582031 190.621094 C 128.664062 190.785156 130.71875 193.007812 134.90625 192.925781 C 133.675781 192.433594 132.769531 191.691406 131.703125 190.539062 C 131.457031 190.210938 131.457031 189.71875 131.785156 189.472656 C 132.113281 189.222656 132.605469 189.222656 132.855469 189.554688 C 134.414062 191.28125 135.320312 191.773438 138.6875 192.351562 C 139.015625 192.433594 139.261719 192.679688 139.34375 193.089844 C 139.34375 193.417969 139.179688 193.746094 138.769531 193.832031 C 137.289062 194.324219 135.894531 194.488281 134.660156 194.488281 Z M 134.660156 194.488281 " fill-opacity="1" fill-rule="nonzero"/><path fill="#020202" d="M 162.433594 204.027344 C 162.433594 204.027344 158.820312 188.15625 150.683594 190.785156 C 142.46875 193.417969 147.480469 208.222656 147.480469 208.222656 C 147.480469 208.222656 158.078125 207.894531 162.433594 204.027344 Z M 162.433594 204.027344 " fill-opacity="1" fill-rule="nonzero"/><path fill="#ffffff" d="M 149.617188 198.765625 C 149.617188 199.09375 149.554688 199.40625 149.429688 199.710938 C 149.304688 200.011719 149.125 200.277344 148.894531 200.511719 C 148.664062 200.742188 148.394531 200.917969 148.09375 201.042969 C 147.792969 201.171875 147.476562 201.234375 147.152344 201.234375 C 146.824219 201.234375 146.507812 201.171875 146.207031 201.042969 C 145.90625 200.917969 145.640625 200.742188 145.40625 200.511719 C 145.175781 200.277344 145 200.011719 144.875 199.710938 C 144.75 199.40625 144.6875 199.09375 144.6875 198.765625 C 144.6875 198.4375 144.75 198.125 144.875 197.820312 C 145 197.519531 145.175781 197.25 145.40625 197.019531 C 145.640625 196.789062 145.90625 196.609375 146.207031 196.484375 C 146.507812 196.359375 146.824219 196.296875 147.152344 196.296875 C 147.476562 196.296875 147.792969 196.359375 148.09375 196.484375 C 148.394531 196.609375 148.664062 196.789062 148.894531 197.019531 C 149.125 197.25 149.304688 197.519531 149.429688 197.820312 C 149.554688 198.125 149.617188 198.4375 149.617188 198.765625 Z M 149.617188 198.765625 " fill-opacity="1" fill-rule="nonzero"/><path fill="#ffffff" d="M 206.804688 192.597656 C 206.804688 192.597656 202.285156 171.457031 213.953125 169.484375 C 225.621094 167.511719 229.402344 187.085938 229.402344 187.085938 C 229.402344 187.085938 214.609375 194.652344 206.804688 192.597656 Z M 206.804688 192.597656 " fill-opacity="1" fill-rule="nonzero"/><path fill="#020202" d="M 209.84375 193.746094 C 208.695312 193.746094 207.625 193.664062 206.640625 193.417969 C 206.394531 193.335938 206.148438 193.089844 206.066406 192.84375 C 205.984375 192.265625 203.269531 179.4375 207.871094 172.691406 C 209.351562 170.554688 211.324219 169.238281 213.871094 168.828125 C 226.113281 166.769531 229.976562 186.179688 230.140625 187.003906 C 230.222656 187.332031 230.058594 187.660156 229.730469 187.824219 C 229.238281 187.992188 217.980469 193.746094 209.84375 193.746094 Z M 207.460938 191.9375 C 214.117188 193.253906 225.867188 187.910156 228.496094 186.59375 C 227.757812 183.46875 223.730469 168.496094 214.117188 170.222656 C 211.980469 170.554688 210.339844 171.621094 209.105469 173.433594 C 205.40625 179.023438 207.050781 189.636719 207.460938 191.9375 Z M 207.460938 191.9375 " fill-opacity="1" fill-rule="nonzero"/><path fill="#020202" d="M 222.910156 173.1875 C 222.582031 173.1875 222.335938 173.019531 222.171875 172.773438 C 222.003906 172.445312 222.089844 172.035156 222.417969 171.871094 C 225.128906 169.8125 225.703125 168.992188 226.277344 166.6875 C 226.359375 166.277344 226.773438 166.03125 227.183594 166.113281 C 227.59375 166.195312 227.839844 166.605469 227.757812 167.015625 C 227.347656 168.578125 226.9375 169.566406 226.03125 170.636719 C 229.8125 168.742188 230.550781 165.699219 230.550781 165.617188 C 230.632812 165.207031 231.042969 164.960938 231.453125 165.042969 C 231.867188 165.125 232.113281 165.535156 232.03125 165.949219 C 231.949219 166.195312 230.714844 171.707031 222.910156 173.1875 C 222.992188 173.1875 222.992188 173.1875 222.910156 173.1875 Z M 222.910156 173.1875 " fill-opacity="1" fill-rule="nonzero"/><path fill="#020202" d="M 206.96875 193.089844 C 206.96875 193.089844 202.777344 177.378906 211.324219 175.898438 C 219.789062 174.417969 222.253906 189.882812 222.253906 189.882812 C 222.253906 189.882812 212.554688 194.488281 206.96875 193.089844 Z M 206.96875 193.089844 " fill-opacity="1" fill-rule="nonzero"/><path fill="#ffffff" d="M 220.527344 181.410156 C 220.527344 181.738281 220.464844 182.050781 220.339844 182.355469 C 220.214844 182.65625 220.035156 182.925781 219.804688 183.15625 C 219.574219 183.386719 219.308594 183.566406 219.003906 183.691406 C 218.703125 183.816406 218.386719 183.878906 218.0625 183.878906 C 217.734375 183.878906 217.421875 183.816406 217.117188 183.691406 C 216.816406 183.566406 216.550781 183.386719 216.320312 183.15625 C 216.085938 182.925781 215.910156 182.65625 215.785156 182.355469 C 215.660156 182.050781 215.597656 181.738281 215.597656 181.410156 C 215.597656 181.082031 215.660156 180.769531 215.785156 180.464844 C 215.910156 180.164062 216.085938 179.898438 216.320312 179.664062 C 216.550781 179.433594 216.816406 179.257812 217.117188 179.132812 C 217.421875 179.003906 217.734375 178.941406 218.0625 178.941406 C 218.386719 178.941406 218.703125 179.003906 219.003906 179.132812 C 219.308594 179.257812 219.574219 179.433594 219.804688 179.664062 C 220.035156 179.898438 220.214844 180.164062 220.339844 180.464844 C 220.464844 180.769531 220.527344 181.082031 220.527344 181.410156 Z M 220.527344 181.410156 " fill-opacity="1" fill-rule="nonzero"/><path fill="#020202" d="M 183.550781 224.757812 C 179.195312 224.757812 176.8125 221.21875 176.730469 221.136719 C 176.484375 220.808594 176.566406 220.316406 176.976562 220.066406 C 177.304688 219.820312 177.800781 219.902344 178.046875 220.316406 C 178.128906 220.480469 180.757812 224.261719 185.523438 222.945312 C 186.589844 222.617188 187.414062 221.960938 187.90625 220.972656 C 189.386719 217.847656 187.496094 212.007812 187.085938 211.019531 C 186.921875 210.609375 187.085938 210.199219 187.414062 210.035156 C 187.824219 209.867188 188.234375 210.035156 188.398438 210.363281 C 188.398438 210.445312 191.191406 217.1875 189.386719 221.464844 C 188.726562 223.027344 187.578125 224.015625 185.933594 224.425781 C 185.113281 224.675781 184.289062 224.757812 183.550781 224.757812 Z M 183.550781 224.757812 " fill-opacity="1" fill-rule="nonzero"/><path fill="#020202" d="M 194.726562 222.042969 C 193.574219 222.042969 192.425781 221.628906 191.519531 220.808594 C 187.988281 217.847656 187.25 210.609375 187.25 210.527344 C 187.25 210.117188 187.578125 209.785156 187.988281 209.785156 C 188.398438 209.785156 188.726562 210.117188 188.726562 210.527344 C 188.808594 211.679688 189.796875 217.601562 192.507812 219.738281 C 193.410156 220.398438 194.398438 220.644531 195.464844 220.398438 C 200.3125 219.410156 200.886719 214.640625 200.886719 214.640625 C 200.972656 214.226562 201.300781 213.898438 201.710938 213.980469 C 202.121094 214.0625 202.449219 214.394531 202.367188 214.804688 C 202.367188 214.886719 201.710938 220.726562 195.710938 221.960938 C 195.546875 222.042969 195.136719 222.042969 194.726562 222.042969 Z M 194.726562 222.042969 " fill-opacity="1" fill-rule="nonzero"/><path fill="#964f20" d="M 180.019531 206.003906 C 178.128906 208.554688 184.621094 212.914062 188.726562 212.253906 C 192.917969 211.597656 194.152344 205.34375 192.753906 203.371094 C 191.4375 201.398438 187.167969 206.332031 187.167969 206.332031 C 187.167969 206.332031 182.648438 202.464844 180.019531 206.003906 Z M 180.019531 206.003906 " fill-opacity="1" fill-rule="nonzero"/><path fill="#020202" d="M 187.90625 213.078125 C 184.621094 213.078125 180.757812 210.855469 179.441406 208.636719 C 178.785156 207.484375 178.703125 206.332031 179.359375 205.507812 L 180.019531 206.003906 L 179.359375 205.507812 C 180.101562 204.523438 181.085938 203.863281 182.238281 203.78125 C 184.207031 203.535156 186.097656 204.6875 187.085938 205.34375 C 188.152344 204.195312 190.289062 202.054688 192.015625 202.136719 C 192.589844 202.136719 193.082031 202.464844 193.410156 202.960938 C 194.316406 204.277344 194.316406 206.90625 193.328125 209.210938 C 192.425781 211.347656 190.78125 212.746094 188.890625 212.996094 C 188.5625 213.078125 188.234375 213.078125 187.90625 213.078125 Z M 182.8125 205.34375 C 182.730469 205.34375 182.566406 205.34375 182.484375 205.34375 C 181.742188 205.425781 181.167969 205.839844 180.675781 206.496094 C 180.59375 206.660156 180.265625 207.074219 180.839844 207.976562 C 181.988281 209.953125 186.015625 212.007812 188.726562 211.597656 C 190.617188 211.265625 191.605469 209.621094 192.015625 208.71875 C 192.835938 206.824219 192.835938 204.769531 192.261719 203.945312 C 192.179688 203.863281 192.179688 203.863281 192.015625 203.78125 C 191.027344 203.78125 188.972656 205.675781 187.90625 206.992188 C 187.660156 207.320312 187.167969 207.320312 186.839844 207.074219 C 186.671875 206.992188 184.703125 205.34375 182.8125 205.34375 Z M 182.8125 205.34375 " fill-opacity="1" fill-rule="nonzero"/><path fill="#ffffff" d="M 171.472656 183.054688 C 171.472656 183.054688 176.238281 179.601562 180.511719 178.613281 C 184.785156 177.628906 189.796875 179.847656 189.796875 179.847656 L 191.191406 185.605469 C 191.191406 185.605469 184.867188 183.46875 180.839844 185.03125 C 176.8125 186.59375 172.375 189.554688 172.375 189.554688 Z M 171.472656 183.054688 " fill-opacity="1" fill-rule="nonzero"/><path fill="#020202" d="M 172.292969 190.375 C 172.210938 190.375 172.046875 190.375 171.964844 190.292969 C 171.71875 190.210938 171.554688 189.964844 171.554688 189.71875 L 170.734375 183.21875 C 170.734375 182.972656 170.816406 182.644531 171.0625 182.480469 C 171.226562 182.316406 175.992188 178.941406 180.347656 177.957031 C 184.785156 176.96875 189.878906 179.191406 190.125 179.273438 C 190.371094 179.355469 190.535156 179.601562 190.535156 179.765625 L 191.933594 185.523438 C 192.015625 185.769531 191.933594 186.097656 191.6875 186.261719 C 191.519531 186.429688 191.191406 186.511719 190.945312 186.429688 C 190.863281 186.429688 184.867188 184.453125 181.085938 185.851562 C 177.140625 187.332031 172.789062 190.210938 172.703125 190.292969 C 172.539062 190.292969 172.457031 190.375 172.292969 190.375 Z M 172.292969 183.382812 L 172.953125 188.238281 C 174.511719 187.25 177.636719 185.441406 180.59375 184.289062 C 183.714844 183.054688 188.070312 183.960938 190.207031 184.453125 L 189.222656 180.339844 C 188.070312 179.847656 184.125 178.449219 180.757812 179.273438 C 177.222656 180.175781 173.445312 182.644531 172.292969 183.382812 Z M 172.292969 183.382812 " fill-opacity="1" fill-rule="nonzero"/><path fill="#ffffff" d="M 170.734375 193.914062 C 173.691406 192.183594 175.335938 188.730469 174.675781 185.277344 C 173.773438 180.835938 169.5 177.957031 165.0625 178.859375 C 164.898438 178.859375 164.734375 178.941406 164.488281 179.023438 C 165.554688 177.296875 165.96875 175.242188 165.554688 173.1875 C 164.652344 168.742188 160.378906 165.867188 155.941406 166.769531 C 154.136719 167.097656 152.65625 168.085938 151.503906 169.320312 C 151.503906 168.992188 151.503906 168.742188 151.421875 168.414062 C 150.519531 163.972656 146.246094 161.09375 141.808594 162 C 138.523438 162.65625 136.058594 165.207031 135.402344 168.332031 C 133.59375 165.699219 130.386719 164.300781 127.019531 164.960938 C 122.582031 165.867188 119.707031 170.140625 120.609375 174.582031 C 120.691406 175.078125 120.855469 175.488281 121.019531 175.898438 C 119.953125 175.652344 118.804688 175.652344 117.652344 175.816406 C 113.214844 176.722656 110.339844 181 111.242188 185.441406 C 111.65625 187.660156 112.96875 189.472656 114.695312 190.621094 C 114.449219 190.621094 114.203125 190.621094 113.953125 190.703125 C 109.519531 191.609375 106.640625 195.886719 107.546875 200.328125 C 108.285156 204.195312 111.65625 206.824219 115.433594 206.90625 C 113.953125 208.71875 113.296875 211.183594 113.789062 213.652344 C 114.695312 218.09375 118.96875 220.972656 123.40625 220.066406 C 124.0625 219.902344 124.636719 219.738281 125.292969 219.410156 C 124.964844 220.5625 124.882812 221.878906 125.128906 223.109375 C 126.035156 227.550781 130.304688 230.429688 134.742188 229.527344 C 137.289062 229.03125 139.261719 227.386719 140.414062 225.25 C 141.808594 229.03125 145.671875 231.335938 149.699219 230.511719 C 153.972656 229.609375 156.765625 225.578125 156.1875 221.300781 C 157.914062 222.453125 160.050781 222.945312 162.269531 222.453125 C 166.707031 221.546875 169.582031 217.269531 168.679688 212.828125 C 168.433594 211.679688 168.019531 210.691406 167.363281 209.785156 C 168.1875 209.867188 169.007812 209.867188 169.910156 209.703125 C 174.347656 208.800781 177.222656 204.523438 176.320312 200.082031 C 175.664062 197.039062 173.445312 194.816406 170.734375 193.914062 Z M 147.398438 220.5625 C 134.414062 223.195312 121.679688 214.722656 119.050781 201.726562 C 116.421875 188.730469 124.882812 175.980469 137.867188 173.351562 C 150.847656 170.71875 163.585938 179.191406 166.214844 192.183594 C 168.84375 205.261719 160.460938 217.929688 147.398438 220.5625 Z M 147.398438 220.5625 " fill-opacity="1" fill-rule="nonzero"/><path fill="#020202" d="M 148.054688 231.417969 C 144.851562 231.417969 141.890625 229.691406 140.332031 226.894531 C 139.015625 228.703125 137.125 229.9375 134.988281 230.347656 C 132.605469 230.84375 130.222656 230.347656 128.253906 229.03125 C 126.28125 227.71875 124.882812 225.660156 124.390625 223.359375 C 124.226562 222.453125 124.144531 221.628906 124.308594 220.726562 C 124.0625 220.808594 123.816406 220.890625 123.652344 220.890625 C 118.804688 221.878906 114.121094 218.75 113.132812 213.898438 C 112.722656 211.761719 113.050781 209.539062 114.203125 207.648438 C 110.585938 206.988281 107.628906 204.277344 106.886719 200.574219 C 106.394531 198.191406 106.886719 195.804688 108.203125 193.832031 C 109.355469 192.101562 111.078125 190.871094 113.050781 190.210938 C 111.820312 188.976562 110.914062 187.414062 110.585938 185.605469 C 109.601562 180.753906 112.722656 176.0625 117.570312 175.078125 C 118.390625 174.914062 119.214844 174.832031 120.035156 174.914062 C 120.035156 174.832031 120.035156 174.75 119.953125 174.667969 C 118.96875 169.8125 122.089844 165.125 126.9375 164.136719 C 129.976562 163.5625 133.019531 164.550781 135.070312 166.6875 C 136.140625 163.890625 138.605469 161.835938 141.644531 161.175781 C 144.027344 160.683594 146.410156 161.175781 148.382812 162.492188 C 150.273438 163.726562 151.503906 165.535156 152.082031 167.675781 C 153.148438 166.851562 154.464844 166.277344 155.777344 165.949219 C 160.625 164.960938 165.308594 168.085938 166.296875 172.9375 C 166.625 174.582031 166.460938 176.3125 165.886719 177.875 C 167.855469 177.710938 169.910156 178.203125 171.636719 179.355469 C 173.609375 180.671875 175.003906 182.726562 175.417969 185.03125 C 176.074219 188.320312 174.839844 191.609375 172.292969 193.664062 C 174.675781 194.898438 176.484375 197.121094 176.976562 199.835938 C 177.472656 202.21875 176.976562 204.605469 175.664062 206.578125 C 174.347656 208.554688 172.292969 209.953125 169.992188 210.363281 C 169.582031 210.445312 169.171875 210.527344 168.679688 210.527344 C 169.007812 211.183594 169.253906 211.84375 169.335938 212.582031 C 169.828125 214.96875 169.335938 217.355469 168.019531 219.328125 C 166.707031 221.300781 164.652344 222.699219 162.351562 223.195312 C 160.542969 223.523438 158.65625 223.359375 157.011719 222.617188 C 156.929688 226.730469 154.054688 230.429688 149.863281 231.253906 C 149.203125 231.417969 148.628906 231.417969 148.054688 231.417969 Z M 140.414062 224.507812 C 140.742188 224.507812 141.070312 224.757812 141.152344 225.003906 C 142.386719 228.457031 145.917969 230.515625 149.535156 229.773438 C 153.394531 229.03125 155.941406 225.332031 155.367188 221.464844 C 155.285156 221.136719 155.449219 220.890625 155.695312 220.726562 C 155.941406 220.5625 156.269531 220.5625 156.519531 220.726562 C 158.160156 221.796875 160.132812 222.207031 162.023438 221.796875 C 163.996094 221.382812 165.636719 220.316406 166.707031 218.585938 C 167.773438 216.941406 168.1875 214.96875 167.773438 212.996094 C 167.609375 212.007812 167.199219 211.101562 166.625 210.28125 C 166.460938 210.035156 166.460938 209.703125 166.625 209.457031 C 166.789062 209.210938 167.035156 209.046875 167.363281 209.128906 C 168.1875 209.210938 169.007812 209.210938 169.664062 209.046875 C 173.691406 208.222656 176.320312 204.277344 175.5 200.328125 C 175.003906 197.695312 173.035156 195.558594 170.488281 194.734375 C 170.238281 194.652344 169.992188 194.40625 169.992188 194.078125 C 169.992188 193.746094 170.074219 193.5 170.40625 193.335938 C 173.117188 191.691406 174.59375 188.566406 173.9375 185.441406 C 173.527344 183.464844 172.457031 181.820312 170.734375 180.753906 C 169.089844 179.683594 167.117188 179.273438 165.144531 179.683594 C 165.0625 179.683594 164.980469 179.765625 164.898438 179.765625 L 164.652344 179.847656 C 164.324219 179.929688 163.996094 179.847656 163.832031 179.601562 C 163.667969 179.355469 163.585938 179.023438 163.75 178.777344 C 164.734375 177.132812 165.0625 175.242188 164.734375 173.433594 C 163.914062 169.402344 160.050781 166.769531 156.023438 167.59375 C 154.464844 167.921875 153.148438 168.660156 152 169.894531 C 151.835938 170.140625 151.503906 170.222656 151.175781 170.140625 C 150.929688 170.058594 150.683594 169.8125 150.683594 169.484375 L 150.683594 169.238281 C 150.683594 169.074219 150.683594 168.910156 150.601562 168.660156 C 150.191406 166.6875 149.121094 165.042969 147.398438 163.972656 C 145.753906 162.90625 143.78125 162.492188 141.808594 162.90625 C 138.933594 163.480469 136.632812 165.78125 136.058594 168.660156 C 135.976562 168.992188 135.730469 169.15625 135.484375 169.238281 C 135.15625 169.320312 134.90625 169.15625 134.742188 168.910156 C 133.019531 166.441406 130.058594 165.289062 127.183594 165.867188 C 123.15625 166.6875 120.609375 170.636719 121.351562 174.582031 C 121.433594 174.996094 121.597656 175.40625 121.679688 175.816406 C 121.761719 176.0625 121.761719 176.394531 121.515625 176.558594 C 121.351562 176.804688 121.019531 176.886719 120.773438 176.804688 C 119.789062 176.558594 118.722656 176.558594 117.734375 176.804688 C 113.707031 177.628906 111.160156 181.574219 111.902344 185.523438 C 112.3125 187.414062 113.378906 189.140625 115.023438 190.210938 C 115.269531 190.375 115.433594 190.703125 115.351562 191.035156 C 115.269531 191.363281 115.023438 191.609375 114.695312 191.609375 L 114.367188 191.609375 C 114.285156 191.609375 114.121094 191.609375 114.039062 191.609375 C 110.011719 192.433594 107.382812 196.378906 108.203125 200.328125 C 108.859375 203.699219 111.902344 206.25 115.351562 206.25 C 115.679688 206.25 115.925781 206.414062 116.007812 206.660156 C 116.171875 206.90625 116.089844 207.238281 115.925781 207.484375 C 114.53125 209.210938 113.953125 211.433594 114.367188 213.570312 C 115.1875 217.601562 119.132812 220.148438 123.074219 219.410156 C 123.570312 219.328125 124.144531 219.082031 124.71875 218.835938 C 124.964844 218.667969 125.292969 218.75 125.539062 218.917969 C 125.789062 219.082031 125.871094 219.410156 125.789062 219.738281 C 125.457031 220.890625 125.457031 222.042969 125.621094 223.109375 C 126.035156 225.085938 127.101562 226.730469 128.828125 227.800781 C 130.472656 228.867188 132.441406 229.28125 134.414062 228.867188 C 136.632812 228.457031 138.441406 226.976562 139.507812 224.921875 C 139.839844 224.675781 140.085938 224.507812 140.414062 224.507812 Z M 142.632812 221.796875 C 137.785156 221.796875 133.101562 220.398438 128.992188 217.601562 C 123.488281 213.898438 119.707031 208.304688 118.390625 201.808594 C 115.679688 188.402344 124.390625 175.242188 137.785156 172.527344 C 144.273438 171.210938 150.929688 172.527344 156.4375 176.148438 C 161.941406 179.847656 165.722656 185.441406 167.035156 191.9375 C 169.746094 205.34375 161.039062 218.503906 147.644531 221.21875 C 145.917969 221.628906 144.273438 221.796875 142.632812 221.796875 Z M 142.714844 173.679688 C 141.152344 173.679688 139.589844 173.84375 138.03125 174.171875 C 125.457031 176.722656 117.242188 189.058594 119.789062 201.644531 C 122.335938 214.226562 134.660156 222.453125 147.234375 219.902344 C 153.3125 218.667969 158.570312 215.132812 162.023438 209.953125 C 165.472656 204.769531 166.707031 198.519531 165.472656 192.433594 C 164.242188 186.34375 160.707031 181.082031 155.53125 177.628906 C 151.671875 174.996094 147.234375 173.679688 142.714844 173.679688 Z M 142.714844 173.679688 " fill-opacity="1" fill-rule="nonzero"/><path fill="#ffffff" d="M 249.203125 175.160156 C 252.160156 173.433594 253.804688 169.976562 253.148438 166.523438 C 252.242188 162.082031 247.972656 159.203125 243.535156 160.109375 C 243.371094 160.109375 243.203125 160.191406 242.957031 160.273438 C 244.027344 158.546875 244.4375 156.488281 244.027344 154.433594 C 243.121094 149.992188 238.851562 147.113281 234.414062 148.015625 C 232.605469 148.347656 231.125 149.332031 229.976562 150.566406 C 229.976562 150.238281 229.976562 149.992188 229.894531 149.664062 C 228.988281 145.21875 224.71875 142.34375 220.28125 143.246094 C 216.992188 143.90625 214.527344 146.453125 213.871094 149.578125 C 212.0625 146.949219 208.859375 145.550781 205.488281 146.207031 C 201.054688 147.113281 198.175781 151.390625 199.082031 155.832031 C 199.164062 156.324219 199.328125 156.734375 199.492188 157.148438 C 198.421875 156.898438 197.273438 156.898438 196.121094 157.066406 C 191.6875 157.96875 188.808594 162.246094 189.714844 166.6875 C 190.125 168.910156 191.4375 170.71875 193.164062 171.871094 C 192.917969 171.871094 192.671875 171.871094 192.425781 171.953125 C 187.988281 172.855469 185.113281 177.132812 186.015625 181.574219 C 186.753906 185.441406 190.125 188.074219 193.902344 188.15625 C 192.425781 189.964844 191.769531 192.433594 192.261719 194.898438 C 193.164062 199.339844 197.4375 202.21875 201.875 201.316406 C 202.53125 201.152344 203.105469 200.984375 203.765625 200.65625 C 203.4375 201.808594 203.355469 203.125 203.601562 204.359375 C 204.503906 208.800781 208.777344 211.679688 213.214844 210.773438 C 215.761719 210.28125 217.734375 208.636719 218.882812 206.496094 C 220.28125 210.28125 224.140625 212.582031 228.167969 211.761719 C 232.441406 210.855469 235.234375 206.824219 234.660156 202.546875 C 236.386719 203.699219 238.519531 204.195312 240.738281 203.699219 C 245.175781 202.796875 248.054688 198.519531 247.148438 194.078125 C 246.902344 192.925781 246.492188 191.9375 245.835938 191.035156 C 246.65625 191.117188 247.476562 191.117188 248.382812 190.953125 C 252.820312 190.046875 255.695312 185.769531 254.789062 181.328125 C 254.132812 178.285156 251.914062 176.0625 249.203125 175.160156 Z M 225.867188 201.808594 C 212.886719 204.441406 200.148438 195.96875 197.519531 182.972656 C 194.890625 169.976562 203.355469 157.230469 216.335938 154.597656 C 229.320312 151.964844 242.054688 160.4375 244.683594 173.433594 C 247.3125 186.511719 238.851562 199.175781 225.867188 201.808594 Z M 225.867188 201.808594 " fill-opacity="1" fill-rule="nonzero"/><path fill="#020202" d="M 226.441406 212.664062 C 223.238281 212.664062 220.28125 210.9375 218.71875 208.140625 C 217.40625 209.953125 215.515625 211.183594 213.378906 211.597656 C 208.53125 212.582031 203.847656 209.457031 202.859375 204.605469 C 202.695312 203.699219 202.613281 202.878906 202.777344 201.972656 C 202.53125 202.054688 202.285156 202.136719 202.121094 202.136719 C 199.738281 202.632812 197.355469 202.136719 195.382812 200.820312 C 193.410156 199.503906 192.015625 197.449219 191.523438 195.144531 C 191.109375 193.007812 191.4375 190.785156 192.589844 188.894531 C 188.972656 188.320312 186.015625 185.523438 185.277344 181.820312 C 184.785156 179.4375 185.277344 177.050781 186.589844 175.078125 C 187.742188 173.351562 189.46875 172.117188 191.4375 171.457031 C 190.207031 170.222656 189.304688 168.660156 188.972656 166.851562 C 187.988281 162 191.109375 157.3125 195.957031 156.324219 C 196.78125 156.160156 197.601562 156.078125 198.421875 156.160156 C 198.421875 156.078125 198.421875 155.996094 198.339844 155.914062 C 197.847656 153.527344 198.339844 151.144531 199.65625 149.167969 C 200.972656 147.195312 203.023438 145.796875 205.324219 145.304688 C 208.285156 144.726562 211.40625 145.714844 213.460938 147.851562 C 214.527344 145.054688 216.992188 143 220.035156 142.34375 C 222.335938 141.847656 224.800781 142.34375 226.773438 143.65625 C 228.660156 144.890625 229.894531 146.699219 230.46875 148.839844 C 231.539062 148.015625 232.851562 147.441406 234.167969 147.113281 C 239.015625 146.125 243.699219 149.25 244.683594 154.105469 C 245.011719 155.75 244.847656 157.476562 244.273438 159.039062 C 246.328125 158.875 248.300781 159.367188 250.023438 160.519531 C 251.996094 161.835938 253.394531 163.890625 253.886719 166.195312 C 254.542969 169.484375 253.3125 172.773438 250.765625 174.832031 C 253.148438 176.0625 254.953125 178.285156 255.449219 181 C 255.941406 183.382812 255.449219 185.769531 254.132812 187.742188 C 252.820312 189.71875 250.765625 191.117188 248.464844 191.609375 C 248.054688 191.691406 247.640625 191.773438 247.148438 191.773438 C 247.476562 192.433594 247.722656 193.089844 247.804688 193.832031 C 248.792969 198.683594 245.671875 203.371094 240.820312 204.359375 C 239.015625 204.6875 237.125 204.523438 235.480469 203.78125 C 235.398438 207.894531 232.523438 211.597656 228.332031 212.417969 C 227.675781 212.664062 227.101562 212.664062 226.441406 212.664062 Z M 218.800781 205.757812 C 218.882812 205.757812 218.882812 205.757812 218.800781 205.757812 C 219.128906 205.757812 219.457031 206.003906 219.539062 206.25 C 220.773438 209.703125 224.304688 211.761719 227.921875 211.019531 C 231.785156 210.28125 234.332031 206.578125 233.753906 202.714844 C 233.671875 202.382812 233.839844 202.136719 234.085938 201.972656 C 234.332031 201.808594 234.660156 201.808594 234.90625 201.972656 C 236.550781 203.042969 238.519531 203.453125 240.410156 203.042969 C 244.4375 202.21875 246.984375 198.273438 246.246094 194.324219 C 246.082031 193.335938 245.671875 192.433594 245.09375 191.609375 C 244.929688 191.363281 244.929688 191.035156 245.09375 190.785156 C 245.257812 190.539062 245.589844 190.375 245.835938 190.457031 C 246.738281 190.539062 247.394531 190.539062 248.136719 190.375 C 252.160156 189.554688 254.789062 185.605469 253.96875 181.65625 C 253.476562 179.023438 251.503906 176.886719 248.957031 176.0625 C 248.628906 175.980469 248.464844 175.734375 248.464844 175.40625 C 248.464844 175.078125 248.546875 174.832031 248.875 174.667969 C 251.585938 173.101562 253.066406 169.894531 252.40625 166.769531 C 251.585938 162.738281 247.640625 160.109375 243.699219 160.929688 C 243.617188 160.929688 243.535156 161.011719 243.453125 161.011719 C 243.371094 161.011719 243.289062 161.09375 243.203125 161.09375 C 242.875 161.175781 242.546875 161.09375 242.382812 160.847656 C 242.21875 160.601562 242.21875 160.273438 242.382812 160.027344 C 243.371094 158.378906 243.699219 156.488281 243.371094 154.679688 C 242.546875 150.648438 238.6875 148.097656 234.660156 148.839844 C 233.097656 149.167969 231.785156 149.910156 230.632812 151.144531 C 230.386719 151.390625 230.140625 151.472656 229.8125 151.390625 C 229.484375 151.308594 229.320312 151.058594 229.320312 150.730469 L 229.320312 150.484375 C 229.320312 150.320312 229.320312 150.074219 229.238281 149.910156 C 228.414062 145.878906 224.472656 143.246094 220.527344 144.070312 C 217.652344 144.644531 215.351562 146.949219 214.773438 149.828125 C 214.691406 150.15625 214.445312 150.320312 214.199219 150.402344 C 213.871094 150.484375 213.625 150.320312 213.378906 150.074219 C 211.652344 147.605469 208.695312 146.453125 205.820312 147.03125 C 201.792969 147.851562 199.246094 151.800781 199.984375 155.75 C 200.066406 156.160156 200.230469 156.570312 200.3125 156.898438 C 200.394531 157.148438 200.394531 157.476562 200.148438 157.640625 C 199.984375 157.886719 199.65625 157.96875 199.410156 157.886719 C 198.339844 157.640625 197.355469 157.640625 196.371094 157.886719 C 194.398438 158.296875 192.753906 159.367188 191.6875 161.09375 C 190.617188 162.738281 190.207031 164.714844 190.617188 166.6875 C 191.027344 168.578125 192.097656 170.308594 193.738281 171.375 C 193.988281 171.539062 194.152344 171.871094 194.070312 172.199219 C 193.988281 172.527344 193.738281 172.773438 193.410156 172.773438 L 193.082031 172.773438 C 193 172.773438 192.835938 172.773438 192.753906 172.773438 C 188.726562 173.597656 186.179688 177.542969 186.921875 181.492188 C 187.578125 184.863281 190.617188 187.414062 194.070312 187.414062 C 194.398438 187.414062 194.644531 187.578125 194.726562 187.824219 C 194.890625 188.074219 194.808594 188.402344 194.644531 188.648438 C 193.246094 190.375 192.671875 192.597656 193.082031 194.734375 C 193.90625 198.765625 197.847656 201.316406 201.792969 200.574219 C 202.367188 200.492188 202.859375 200.246094 203.4375 200 C 203.683594 199.917969 204.011719 199.917969 204.257812 200.082031 C 204.503906 200.246094 204.585938 200.574219 204.503906 200.902344 C 204.175781 202.054688 204.175781 203.207031 204.339844 204.277344 C 205.160156 208.304688 209.105469 210.9375 213.050781 210.117188 C 215.269531 209.703125 217.074219 208.222656 218.144531 206.167969 C 218.308594 205.921875 218.554688 205.757812 218.800781 205.757812 Z M 221.101562 203.042969 C 216.253906 203.042969 211.570312 201.644531 207.460938 198.847656 C 201.957031 195.144531 198.175781 189.554688 196.863281 183.054688 C 194.152344 169.648438 202.859375 156.488281 216.253906 153.773438 C 229.648438 151.058594 242.792969 159.777344 245.503906 173.1875 C 248.21875 186.59375 239.507812 199.753906 226.113281 202.464844 C 224.386719 202.878906 222.746094 203.042969 221.101562 203.042969 Z M 225.867188 201.808594 Z M 221.101562 154.925781 C 219.539062 154.925781 218.0625 155.089844 216.5 155.417969 C 203.929688 157.96875 195.710938 170.308594 198.257812 182.890625 C 200.804688 195.476562 213.132812 203.699219 225.703125 201.152344 C 238.273438 198.601562 246.492188 186.261719 243.945312 173.679688 C 241.726562 162.574219 231.949219 154.925781 221.101562 154.925781 Z M 221.101562 154.925781 " fill-opacity="1" fill-rule="nonzero"/><path fill="#020202" d="M 108.695312 345.253906 C 107.628906 345.253906 106.722656 345.085938 106.3125 344.757812 C 106.066406 344.511719 105.902344 344.183594 105.984375 343.855469 C 106.148438 342.785156 108.53125 340.316406 110.503906 338.589844 C 101.382812 339 100.808594 337.933594 100.644531 337.601562 C 100.316406 336.945312 99.574219 335.792969 112.230469 328.144531 C 112.558594 327.898438 113.050781 328.0625 113.296875 328.390625 C 113.542969 328.71875 113.378906 329.214844 113.050781 329.460938 C 108.53125 332.175781 103.4375 335.628906 102.289062 336.945312 C 103.601562 337.273438 108.53125 337.191406 112.722656 336.945312 C 113.050781 336.863281 113.378906 337.109375 113.460938 337.4375 C 113.542969 337.765625 113.460938 338.097656 113.214844 338.34375 C 110.914062 340.316406 108.367188 342.785156 107.710938 343.855469 C 108.695312 344.019531 111.488281 343.773438 113.789062 343.277344 C 114.203125 343.195312 114.613281 343.441406 114.695312 343.9375 C 114.777344 344.347656 114.53125 344.757812 114.039062 344.839844 C 112.230469 345.003906 110.257812 345.253906 108.695312 345.253906 Z M 108.695312 345.253906 " fill-opacity="1" fill-rule="nonzero"/><path fill="#020202" d="M 168.019531 384.648438 C 167.773438 384.648438 167.609375 384.566406 167.445312 384.402344 L 161.203125 376.835938 C 160.953125 376.507812 160.953125 376.011719 161.285156 375.765625 C 161.613281 375.519531 162.105469 375.519531 162.351562 375.847656 L 167.363281 381.933594 L 168.019531 371.984375 C 168.019531 371.738281 168.1875 371.488281 168.433594 371.324219 C 168.679688 371.160156 168.925781 371.242188 169.171875 371.324219 C 170.898438 372.394531 172.953125 373.464844 173.855469 373.710938 C 173.855469 372.148438 173.117188 366.964844 172.210938 362.277344 C 172.128906 361.867188 172.375 361.457031 172.789062 361.375 C 173.199219 361.289062 173.609375 361.539062 173.691406 361.949219 C 175.910156 373.957031 175.253906 374.617188 174.921875 374.945312 C 174.59375 375.273438 173.9375 375.929688 169.335938 373.21875 L 168.597656 383.828125 C 168.597656 384.15625 168.351562 384.402344 168.105469 384.484375 C 168.1875 384.648438 168.105469 384.648438 168.019531 384.648438 Z M 174.59375 374.449219 Z M 174.59375 374.449219 " fill-opacity="1" fill-rule="nonzero"/><path fill="#020202" d="M 200.230469 324.441406 C 197.109375 324.441406 193.738281 321.8125 189.960938 318.851562 C 187.578125 316.957031 185.113281 315.066406 182.402344 313.503906 C 181.085938 312.761719 179.277344 311.695312 177.140625 310.460938 C 165.226562 303.632812 145.261719 292.199219 141.480469 288.417969 C 136.632812 283.566406 136.960938 266.539062 137.125 265.964844 C 137.289062 265.550781 137.703125 265.304688 138.113281 265.46875 C 138.523438 265.632812 138.6875 265.964844 138.605469 266.375 C 138.441406 267.445312 138.359375 283.152344 142.550781 287.347656 C 146.246094 291.050781 166.871094 302.8125 177.882812 309.144531 C 180.019531 310.378906 181.824219 311.449219 183.140625 312.1875 C 185.933594 313.832031 188.5625 315.890625 190.863281 317.699219 C 195.382812 321.234375 198.917969 324.03125 201.875 322.550781 C 202.777344 322.140625 203.355469 321.070312 203.683594 319.507812 C 204.75 314.160156 201.875 304.046875 198.175781 299.769531 C 193.492188 294.503906 185.769531 285.621094 180.675781 282.25 C 175.746094 278.875 169.992188 274.1875 169.582031 267.773438 C 169.582031 267.363281 169.910156 266.949219 170.320312 266.949219 C 170.734375 266.949219 171.144531 267.28125 171.144531 267.691406 C 171.472656 273.449219 176.894531 277.808594 181.578125 281.015625 C 186.839844 284.550781 194.726562 293.515625 199.410156 298.863281 C 203.519531 303.46875 206.476562 314.160156 205.324219 319.917969 C 204.914062 321.976562 204.011719 323.375 202.695312 324.03125 C 201.792969 324.277344 201.054688 324.441406 200.230469 324.441406 Z M 200.230469 324.441406 " fill-opacity="1" fill-rule="nonzero"/></svg>